<svg width="19" height="20" viewBox="0 0 19 20" fill="none" xmlns="http://www.w3.org/2000/svg">
<g id="call">
<path id="Vector" d="M11.5463 16.7291C10.7959 16.7291 10.0057 16.5601 9.18899 16.2346C8.39216 15.9153 7.58869 15.4771 6.80514 14.9451C6.02823 14.4067 5.27788 13.8058 4.56737 13.1485C3.8635 12.4788 3.22604 11.7714 2.66162 11.0453C2.09055 10.2941 1.63238 9.54296 1.307 8.81684C0.961709 8.04064 0.789062 7.28947 0.789062 6.58213C0.789062 6.09387 0.882026 5.63066 1.06131 5.19874C1.24724 4.7543 1.54605 4.34116 1.95111 3.98436C2.46241 3.50862 3.04675 3.27075 3.67094 3.27075C3.92991 3.27075 4.19552 3.32709 4.42129 3.42724C4.68026 3.53992 4.89938 3.70893 5.05875 3.93428L6.59929 5.9812C6.73874 6.16273 6.84498 6.338 6.91802 6.51327C7.00435 6.70106 7.05083 6.88885 7.05083 7.07038C7.05083 7.30825 6.97779 7.53986 6.83834 7.75895C6.73874 7.92796 6.58601 8.10949 6.39344 8.29102L5.94191 8.73546C5.94855 8.75424 5.95519 8.76676 5.96183 8.77928C6.04151 8.91073 6.20088 9.13608 6.50633 9.4741C6.8317 9.82465 7.13715 10.1439 7.4426 10.4381C7.83438 10.8012 8.15975 11.0891 8.46521 11.327C8.8437 11.6274 9.08939 11.7777 9.23548 11.8465L9.22219 11.8778L9.70693 11.4271C9.91278 11.2331 10.112 11.0891 10.3046 10.9952C10.6698 10.7824 11.1346 10.7448 11.5994 10.9264C11.7721 10.9952 11.958 11.0891 12.1572 11.2206L14.3618 12.6978C14.6074 12.8543 14.7867 13.0546 14.893 13.2925C14.9926 13.5304 15.0391 13.7495 15.0391 13.9686C15.0391 14.269 14.966 14.5695 14.8266 14.8512C14.6871 15.1329 14.5145 15.377 14.2954 15.6023C13.9169 15.9967 13.5052 16.2784 13.0271 16.4599C12.5689 16.6352 12.0709 16.7291 11.5463 16.7291ZM3.67094 4.20971C3.30572 4.20971 2.96707 4.35994 2.6417 4.6604C2.33624 4.92957 2.12375 5.22378 1.99095 5.54302C1.8515 5.86852 1.7851 6.21281 1.7851 6.58213C1.7851 7.16428 1.93119 7.79651 2.22336 8.44752C2.52217 9.11104 2.94051 9.79961 3.47173 10.4882C4.00295 11.1767 4.60721 11.8465 5.27124 12.4788C5.93527 13.0985 6.65241 13.6744 7.38948 14.1814C8.10663 14.6759 8.8437 15.0765 9.57413 15.3645C10.7096 15.8214 11.7721 15.9278 12.6486 15.5836C12.9872 15.4521 13.286 15.2518 13.5583 14.9639C13.711 14.8074 13.8305 14.6383 13.9301 14.438C14.0098 14.2815 14.0497 14.1188 14.0497 13.956C14.0497 13.8559 14.0297 13.7557 13.9766 13.6431C13.9567 13.6055 13.9169 13.5366 13.7907 13.4553L11.5861 11.978C11.4533 11.8903 11.3338 11.8277 11.2209 11.7839C11.0748 11.7276 11.0151 11.6713 10.7893 11.8027C10.6565 11.8653 10.537 11.9592 10.4042 12.0844L9.8995 12.5539C9.64053 12.7917 9.24212 12.8481 8.93666 12.7417L8.75738 12.6665C8.48513 12.5288 8.16639 12.316 7.81446 12.0343C7.49573 11.7777 7.15043 11.4772 6.7321 11.0891C6.40672 10.7761 6.08135 10.4444 5.7427 10.075C5.43061 9.73075 5.20484 9.43655 5.06539 9.19242L4.98571 9.00463C4.94587 8.86065 4.93259 8.77928 4.93259 8.69164C4.93259 8.46629 5.01891 8.26598 5.18492 8.10949L5.68294 7.62124C5.81574 7.49604 5.91534 7.37711 5.98175 7.27069C6.03487 7.18932 6.05479 7.12046 6.05479 7.05786C6.05479 7.00779 6.03487 6.93267 6.00167 6.85755C5.95519 6.7574 5.88214 6.64472 5.78918 6.52579L4.24864 4.47261C4.18224 4.38498 4.10255 4.32238 4.00295 4.27856C3.8967 4.23474 3.78382 4.20971 3.67094 4.20971ZM9.22219 11.8841L9.11595 12.3097L9.29524 11.8716C9.26204 11.8653 9.23547 11.8716 9.22219 11.8841Z" fill="#310F4C"/>
</g>
</svg>
